<?xml version="1.0" encoding="UTF-8"?>
<svg id="Layer_1" data-name="Layer 1" xmlns="http://www.w3.org/2000/svg" viewBox="0 0 722.03 1000.59">
  <defs>
    <style>
      .cls-1 {
        fill: #7baa07;
        stroke: #000;
        stroke-miterlimit: 10;
      }
      .red {
        fill: #ff0000;
        stroke: #000;
      }
    </style>
  </defs>
  <path class="cls-1 santarém" d="m236.71,652.06c-.39,0-.74-.16-.99-.46l-12.44-14.77c-.59-.7-1.35-1.21-2.22-1.48l-17.74-5.59c-.46-.15-.94-.22-1.43-.22-.6,0-1.19.11-1.76.33l-19.6,8.34c-.14-.98-.59-1.91-1.3-2.64l-21.26-22c-.91-.94-2.13-1.46-3.43-1.46-.48,0-.97.07-1.43.22l-24.42,7.61s-.08.02-.11.03l-27.15,4.63v-15.95s38.22-25.33,38.22-25.33c.48-.31.9-.71,1.24-1.18l15.6-21.4c1.03-1.41,1.21-3.28.46-4.86l-6.19-13.13c-.21-.45-.16-.94.15-1.34.25-.32.6-.5.99-.5.09,0,.18,0,.27.03l1.75.34c.31.06.62.09.93.09,1.33,0,2.61-.57,3.52-1.55,1.13-1.24,1.54-2.94,1.07-4.56l-2.35-8.17c-.41-1.43-1.48-2.6-2.87-3.14l-9.92-3.84c-.53-.2-.86-.72-.82-1.29l.46-6.58c.03-.45,0-.9-.1-1.34l23.44-22.56c.24-.23.56-.36.9-.36.08,0,.15,0,.23.02l19.28,3.47c.28.05.56.08.85.08.85,0,1.68-.23,2.42-.65l15.5-9.06c.62-.36,1.15-.86,1.55-1.46l15.49-22.97c1.33-1.97,1-4.65-.76-6.23l-2.68-2.41c-.38-.34-.52-.87-.36-1.36l1.83-5.59c.16-.49.6-.84,1.12-.88l27.8-2.23s.07,0,.1,0c.34,0,.66.13.91.37.27.26.41.63.38,1l-.75,11.22c-.09,1.42.44,2.8,1.48,3.79.89.85,2.06,1.32,3.3,1.32.19,0,.37-.01.56-.03l22.79-2.68,5.67,7.59c.25.33.32.77.19,1.17l-6.49,19.97c-.69,2.12.16,4.42,2.07,5.57l19.87,12.03c.75.45,1.61.69,2.48.69.46,0,.92-.07,1.36-.2,1.29-.38,2.37-1.3,2.95-2.51l7.78-16.16c.21-.44.67-.73,1.16-.73.08,0,.16,0,.25.02l7.54,1.46c.36.07.65.27.84.58.19.31.25.66.16,1.01l-2.19,8.37c-.42,1.62.04,3.36,1.21,4.56l8.39,8.6c.17.18.29.4.34.64l3.78,18.77-4.78,3.81c-.23.18-.51.28-.8.28-.05,0-.11,0-.16-.01-.35-.04-.65-.22-.86-.5l-9-11.92c-.83-1.09-2.09-1.78-3.45-1.89-.12,0-.25-.01-.37-.01-1.25,0-2.44.48-3.33,1.35l-11.3,10.96c-1.41,1.37-1.84,3.43-1.1,5.25l4.34,10.61c.24.59,0,1.28-.55,1.6l-25.4,14.66c-.16.09-.34.15-.53.17l-12.86,1.17c-.57.05-1.12.2-1.63.45l-.05.02-40.32,24.8h-.13l-.21.21-.93.57.07.1c-1.06,1.03-1.58,2.5-1.39,4.02l4,30.67c.08.6.26,1.17.56,1.69l13.3,24.11c.23.42.21.93-.05,1.33l-1.87,2.83c-.23.35-.58.55-1,.58h-.07Z"/>
  <path class="cls-1 lisboa" d="m36.97,597.85l17.6-54.67,37.04-37.54-1.56-8.65,8.17-.63s.06,0,.1,0c.27,0,.54.09.75.24l1.81,1.3c.31.23.51.58.53.96l.58,9.1c.11,1.76,1.17,3.31,2.77,4.04l9.21,4.25c.63.29,1.31.44,2.01.44.87,0,1.72-.24,2.47-.69l13.21-7.95c.2-.12.43-.18.67-.18.17,0,.33.03.48.09l6.83,2.75c.52.21.84.73.8,1.28l-.46,6.58c-.15,2.11,1.08,4.04,3.05,4.8l9.92,3.84c.37.14.66.46.77.84l2.35,8.17c.12.43.02.89-.29,1.23-.25.27-.58.42-.94.42-.08,0-.17,0-.25-.02l-1.75-.34c-.3-.06-.61-.09-.92-.09-1.48,0-2.86.67-3.77,1.85-1.11,1.43-1.33,3.34-.55,4.98l6.19,13.13c.2.43.15.93-.12,1.31l-15.6,21.4c-.09.13-.21.23-.34.32l-38.34,25.39-62.42-7.95Z"/>
  <path class="cls-1 leiria" d="m115.98,513.19c-.19,0-.37-.04-.54-.12l-9.21-4.25c-.43-.2-.72-.61-.75-1.09l-.58-9.1c-.09-1.44-.81-2.75-1.99-3.59l-1.81-1.3c-.81-.58-1.8-.9-2.8-.9-.12,0-.24,0-.36.01l-8.52.66-2.97-16.51,61.14-29.7,60.85-68.43,9.7,5.98c.17.1.35.2.53.28l19.18,8.72c.37.17.64.51.73.91l.67,3.18c.28,1.33,1.11,2.48,2.29,3.16.73.42,1.56.64,2.4.64.51,0,1.01-.08,1.49-.24l5.65-1.85c.13-.04.27-.07.41-.07.26,0,.51.08.73.24.34.24.53.6.55,1.01l.2,6.34c.05,1.5.77,2.87,1.99,3.74.82.59,1.78.9,2.78.9.47,0,.94-.07,1.4-.21l13.58-4.14c.12-.04.25-.06.38-.06.22,0,.44.06.64.18.32.18.53.47.61.83l1.44,6.29c.04.18.04.35,0,.53l-.65,3.33c-.36,1.87.37,3.71,1.92,4.81.82.59,1.78.89,2.77.89.84,0,1.67-.23,2.41-.65l7.17-4.16c.13-.08.26-.16.39-.25l14.65-10.54c.22-.16.48-.24.75-.24.04,0,.08,0,.12,0l10.59.96c.44.04.8.28,1.02.67s.21.82,0,1.22l-1.16,2.19c-.49.92-.67,1.99-.5,3.02l2.14,13.01c.05.3,0,.61-.17.87l-6.19,10.35c-.16.27-.42.48-.73.57l-27.61,8.42c-.07.02-.15.04-.22.05l-26.5,3.11c-.05,0-.1,0-.15,0-.33,0-.65-.13-.89-.35-.28-.26-.42-.64-.4-1.02l.75-11.22c.09-1.39-.42-2.75-1.42-3.73-.9-.89-2.09-1.38-3.36-1.38-.13,0-.26,0-.39.02l-27.8,2.23c-1.93.16-3.56,1.44-4.17,3.28l-1.83,5.59c-.59,1.8-.06,3.78,1.34,5.05l2.68,2.41c.47.43.56,1.15.21,1.68l-15.49,22.97c-.11.16-.25.29-.42.39l-15.5,9.06c-.2.12-.42.18-.65.18-.08,0-.15,0-.23-.02l-19.28-3.47c-.28-.05-.56-.08-.85-.08-1.25,0-2.43.48-3.32,1.34l-22.99,22.13c-.29-.2-.59-.36-.91-.49l-6.83-2.75c-.57-.23-1.17-.34-1.78-.34-.87,0-1.73.24-2.47.68l-13.21,7.95c-.2.12-.43.19-.66.19Z"/>
  <path class="cls-1 algarve" d="m136.37,972.93l-80.55-32.31-54.92-5.78,47.62-67.67,38.2,29.32c.83.63,1.86.99,2.9.99l29.98.11c.32,0,.62.12.86.33l35.64,32.32c.88.8,2.03,1.24,3.22,1.24.11,0,.23,0,.34-.01l95.98-6.95-9.62,60.99-26.62-2.07-59.5,16.58-23.54-27.09Z"/>
  <path class="cls-1 setubal" d="m97.93,817.3c-.25,0-.5-.08-.72-.22l-19.59-13.23,2.17-4.78-3.27-27.86,27.48-65.39,22.14-5.53,14.24-19.63-35.28-21.51-56,.83,10.13-45.02,42.2,13.95v-.74s27.8-4.75,27.8-4.75c.19-.04.35-.08.5-.13l24.41-7.61c.13-.04.26-.06.39-.06.35,0,.68.14.92.39l21.26,22c.26.27.39.64.36,1.02-.04.37-.23.71-.54.93l-26.98,18.92c-1.35.95-2.11,2.49-2.03,4.14.08,1.64.97,3.12,2.4,3.93l33.9,19.42c.4.23.64.65.65,1.11l.17,28.67c0,1.02.33,2,.94,2.82l16.11,21.83c.2.27.28.6.24.93l-1.65,13.05c-.07.53-.44.95-.95,1.08l-38.33,9.95c-1.9.49-3.33,2.14-3.55,4.09l-4.17,36.76c-.06.56-.5,1.02-1.06,1.12l-54.05,9.49c-.08.01-.15.02-.23.02Z"/>
  <path class="cls-1 coimbra" d="m368.89,431.35c-.13,0-.27-.02-.4-.06l-12.12-3.94c-.48-.16-.98-.23-1.48-.23-.07,0-.13,0-.2,0l-33.89,1.41-2.06-12.57c-.05-.28,0-.57.13-.81l1.16-2.19c.75-1.42.75-3.11-.02-4.53-.77-1.41-2.18-2.34-3.78-2.49l-10.6-.96c-.15-.01-.29-.02-.44-.02-1.01,0-1.97.31-2.79.9l-14.65,10.53s-.07.05-.11.07l-7.16,4.16c-.21.12-.43.18-.65.18-.26,0-.51-.09-.74-.25-.43-.31-.62-.78-.52-1.29l.65-3.33c.13-.66.12-1.33-.03-1.98l-1.44-6.29c-.3-1.29-1.12-2.41-2.27-3.07-.73-.42-1.56-.64-2.4-.64-.47,0-.94.07-1.39.21l-13.58,4.14c-.13.04-.25.06-.38.06-.27,0-.52-.08-.74-.24-.33-.24-.52-.6-.54-1.01l-.2-6.34c-.05-1.52-.79-2.9-2.03-3.77-.81-.57-1.76-.87-2.74-.87-.51,0-1.01.08-1.5.24l-5.65,1.85c-.13.04-.27.07-.41.07h0c-.22,0-.44-.06-.64-.18-.33-.19-.54-.48-.62-.85l-.67-3.18c-.31-1.49-1.32-2.75-2.7-3.38l-19.18-8.72s-.1-.05-.14-.08l-9.37-5.78,46.12-77.49,7.94,13.72c.66,1.14,1.73,1.94,3,2.25.38.09.76.14,1.15.14.9,0,1.79-.26,2.56-.75l3.87-2.46c.21-.14.45-.21.69-.21.22,0,.44.06.64.18.43.25.66.67.65,1.16l-.04,1c-.05,1.33.46,2.64,1.41,3.58l6.97,6.91c.29.29.43.7.37,1.1l-2.4,16.42c-.12.79-.03,1.6.25,2.35l2.62,7.09c.48,1.31,1.51,2.34,2.81,2.82.54.2,1.11.31,1.68.31.8,0,1.59-.2,2.29-.59l18.71-10.21c.19-.1.4-.16.61-.16.39,0,.75.17.99.46l8.62,10.39c.9,1.08,2.27,1.73,3.68,1.73.07,0,.13,0,.2,0l42.23-1.69c.37-.01.74-.07,1.09-.17l27.11-7.55c.12-.03.24-.05.35-.05.24,0,.47.07.67.19v.68l.52-.07c.1.24.12.51.06.77l-1.67,7.23c-.1.42-.14.86-.12,1.29l.89,19.69c0,.22-.04.43-.13.63l-9.78,19.75c-.13.17-.23.33-.32.49l-5.18,9.21c-.75,1.34-.82,2.96-.17,4.35l5.03,10.9c.29.63.02,1.4-.61,1.7l-16.52,7.98c-.18.09-.37.13-.56.13Z"/>
  <path class="cls-1 viseu" d="m325.81,352.38c-.38,0-.75-.17-.99-.46l-8.62-10.39c-.25-.3-.54-.57-.86-.81l25.32-39.24c.51-.78.77-1.69.77-2.62l-.15-25.4c0-.38.17-.75.46-.99l17.53-14.73c.23-.2.53-.3.83-.3.12,0,.25.02.36.05l15.71,4.61c.44.13.89.19,1.34.19.86,0,1.7-.23,2.44-.67,1.14-.67,1.95-1.8,2.24-3.09l4.78-21.62c.4-1.8-.29-3.69-1.74-4.82l-7.85-6.08c-.38-.3-.57-.78-.48-1.26l2.22-11.86c.06-.33.09-.67.08-1l25.4,6.4c.1.03.21.05.32.07l20.28,3.64c.28.05.56.07.84.07.52,0,1.04-.08,1.54-.25l14.26-4.83c.13-.05.27-.07.41-.07.13,0,.25.02.37.06l24.54,7.42.08.03,13.98,5.19c.53.2,1.09.3,1.66.3.7,0,1.4-.16,2.03-.45l9.41-4.4c.17-.08.35-.12.54-.12.09,0,.19,0,.29.03l12.37,1.78c.12.47.31.91.56,1.32l12.4,20.05-16.62,19.45c-1.53,1.79-1.54,4.39-.03,6.19.43.51.4,1.25-.06,1.73l-23.26,23.85c-.24.25-.57.39-.92.39h0c-.06,0-.12,0-.18-.01-.41-.05-.75-.29-.95-.65l-5.53-9.93c-.84-1.52-2.45-2.46-4.18-2.46-.4,0-.81.05-1.2.15l-8.46,2.19c-.74.19-1.43.56-2,1.07l-6.29,5.64c-1.24,1.11-1.82,2.82-1.51,4.46l3.35,17.71c.05.29,0,.59-.13.85l-11.03,20.47c-.22.4-.63.66-1.11.68l-41.18,3.7c-.73-.43-1.56-.66-2.42-.66-.43,0-.87.06-1.29.18l-27.11,7.55c-.1.03-.19.04-.29.05l-42.28,1.69Z"/>
  <path class="cls-1 vila_real" d="m482.89,226.41c-.15,0-.3-.03-.45-.08l-13.98-5.19c-.1-.03-.19-.07-.28-.09l-24.54-7.42c-.45-.14-.92-.21-1.39-.21-.52,0-1.04.09-1.53.25l-10.81,3.66,12.11-22.66c.49-.91.67-1.98.51-3.01l-3.42-21.42c-.14-.91-.54-1.74-1.15-2.42l11.83-17.29c.13-.18.31-.33.53-.42l22.06-9.53c1.82-.79,2.95-2.57,2.89-4.55l-.25-7.67c-.07-2.07-1.44-3.85-3.43-4.43l-17.86-5.28c-.35-.1-.62-.33-.78-.66-.16-.32-.18-.68-.06-1.02l3.72-10.21c.89-2.45-.37-5.19-2.8-6.11l-12.9-4.89c-.38-.14-.67-.45-.78-.84-.11-.39-.04-.8.21-1.13l17.07-22.78,61.26,8.08,60.15,31.77,4.05,22.31c.07.37-.03.75-.27,1.04l-23.48,29.12c-.54.67-.89,1.47-1.01,2.32l-1.44,9.91c-.07.47-.39.87-.84,1.03l-20.11,7.2c-1.8.64-3.04,2.29-3.16,4.2l-1.02,15.77c-.02.36-.2.7-.49.93l-21.83,17.13c-.52.41-.94.91-1.25,1.49l-12.19-1.75c-.3-.06-.6-.09-.9-.09-.7,0-1.38.15-2.02.45l-9.41,4.4c-.17.08-.36.12-.55.12Z"/>
  <path class="cls-1 beja" d="m159.32,927.99c-.32,0-.63-.12-.87-.33l-35.64-32.32c-.88-.8-2.01-1.24-3.2-1.24l-29.98-.11c-.28,0-.56-.1-.78-.27l-38.56-29.6,25.87-57.04,19.1,12.9c.79.54,1.72.82,2.67.82.28,0,.56-.02.83-.07l54.05-9.49c2.08-.36,3.69-2.08,3.93-4.18l4.17-36.76c.06-.53.44-.97.96-1.1l38.33-9.95c1.91-.49,3.3-2.08,3.55-4.03l1.53-12.12,25.7,8.8c.21.07.4.2.54.36l16.02,17.93c.6.67,1.37,1.16,2.24,1.41l11.27,3.27c.32.09.6.31.76.6l6.4,11.33c.48.85,1.2,1.53,2.08,1.95l22.92,11.12c.64.31,1.37.48,2.09.48.95,0,1.87-.28,2.66-.8l22.01-14.68c.21-.14.46-.22.68-.22l17.85.32c.61.01,1.13.45,1.24,1.05l5.79,30.77c.37,1.99,1.91,3.49,3.9,3.83.27.05.55.07.82.07,1.72,0,3.26-.9,4.13-2.4l.27-.47,26,7.16-18.43,27.19-41.36-5.67-62.26,59.28-2.4,15.21-96.79,7.01s-.06,0-.09,0Z"/>
  <path class="cls-1 porto" d="m405.55,214.91s-.06-.01-.09-.02l-29.85-7.52-5.76-1.49c-.39-.1-.79-.15-1.2-.15-.52,0-1.03.08-1.52.25l-18.97,6.35c-.13.04-.27.07-.41.07-.19,0-.37-.04-.54-.12l-36.61-16.76,1.43-32.17,9.49-54.18,15.37,20.31c.21.28.3.63.25.97l-.66,4.21c-.4,2.56,1.28,4.95,3.83,5.44l9.91,1.9,24.94,5.37c.22.05.43.15.59.3l9.43,8.51c.88.79,2.02,1.23,3.21,1.23,1.15,0,2.27-.42,3.14-1.17l9.1-7.9c.24-.21.53-.32.83-.32.04,0,.08,0,.12,0,.35.03.67.2.89.47l19.35,23.84c.91,1.12,2.27,1.77,3.72,1.77.89,0,1.76-.25,2.52-.72l5.65-3.51c.21-.13.44-.2.67-.2.18,0,.36.04.54.12.4.19.67.53.74.97l3.42,21.42c.04.28,0,.56-.14.81l-13.59,25.44-19.79-3.55Z"/>
  <path class="cls-1 aveiro" d="m290.9,350.74c-.15,0-.31-.03-.45-.08-.35-.13-.63-.41-.76-.76l-2.62-7.09c-.07-.2-.1-.42-.07-.63l2.4-16.42c.22-1.5-.29-3.03-1.37-4.09l-6.97-6.91c-.26-.25-.39-.6-.38-.96l.04-1c.07-1.78-.85-3.44-2.4-4.33-.73-.42-1.55-.64-2.39-.64-.91,0-1.79.26-2.56.75l-3.87,2.46c-.21.13-.44.2-.68.2-.1,0-.21-.01-.31-.04-.35-.08-.63-.3-.81-.61l-8.92-15.41,51.21-86.06.44-9.82,35.33,16.17c.63.29,1.3.44,1.99.44.52,0,1.03-.08,1.52-.25l18.97-6.35c.13-.04.27-.07.41-.07.11,0,.22.01.32.04l5.77,1.49c.65.17,1.07.82.94,1.48l-2.22,11.86c-.33,1.78.35,3.56,1.78,4.67l7.85,6.08c.39.3.58.81.47,1.3l-4.78,21.62c-.08.36-.29.64-.6.83-.2.12-.42.18-.65.18-.12,0-.25-.02-.37-.05l-15.71-4.61c-.44-.13-.89-.19-1.35-.19-1.12,0-2.21.4-3.08,1.12l-17.53,14.73c-1.09.92-1.72,2.27-1.71,3.69l.15,25.4c0,.25-.07.5-.21.7l-26,40.28c-.52.09-1.03.26-1.5.52l-18.71,10.21c-.19.1-.4.16-.62.16Z"/>
  <path class="cls-1 guarda" d="m500.21,414.4c-.89-1.27-2.36-2.03-3.92-2.03-.29,0-.58.03-.87.08l-21.61,4c-.08.01-.16.02-.24.02-.3,0-.59-.11-.82-.3l-6.17-5.16c-.48-.4-.6-1.09-.29-1.64l9.76-16.71c.83-1.43.88-3.16.11-4.62s-2.2-2.42-3.85-2.56l-14.14-1.18c-.22-.02-.44-.1-.62-.22l-7.07-4.84c-.8-.55-1.74-.84-2.71-.84-.58,0-1.15.1-1.7.31l-33.04,12.54c-.08.03-.17.06-.26.07l-20.57,3.1,7.94-16.03c.36-.73.53-1.53.49-2.34l-.89-19.69c0-.12,0-.23.03-.35l1.67-7.23c.14-.63.16-1.27.05-1.89l39.13-3.52c1.63-.07,3.16-1.03,3.95-2.51l11.03-20.47c.52-.96.69-2.09.49-3.16l-3.35-17.71c-.08-.44.07-.9.41-1.2l6.29-5.64c.15-.14.34-.24.54-.29l8.46-2.19c.11-.03.21-.04.32-.04.47,0,.9.25,1.13.66l5.53,9.92c.74,1.33,2.04,2.22,3.55,2.42.21.03.43.04.64.04,1.29,0,2.51-.51,3.42-1.45l23.26-23.85c1.73-1.77,1.83-4.53.24-6.42-.41-.48-.4-1.18,0-1.66l16.65-19.49,19.66,7.3c.53.2,1.09.3,1.66.3,1.09,0,2.15-.37,3-1.05l1.97-1.57c.23-.19.51-.29.79-.29.17,0,.35.04.51.11.45.19.73.58.78,1.07l1.82,19.57c.15,1.66,1.18,3.14,2.68,3.87l9.51,4.61,11.06,26.94-23.71,83.56-15.15,31.95-23.31,7.97-14.25-20.27Z"/>
  <path class="cls-1 evora" d="m350.24,817.18c-.08,0-.15,0-.23-.02-.21-.04-.89-.21-1.05-1.03l-5.79-30.77c-.42-2.22-2.36-3.86-4.62-3.9,0,0-17.88-.32-17.93-.32-.91,0-1.81.28-2.6.81l-22.01,14.68c-.21.14-.46.22-.72.22-.19,0-.39-.04-.56-.13l-22.92-11.12c-.24-.11-.43-.3-.56-.53l-6.4-11.33c-.62-1.1-1.63-1.89-2.83-2.24l-11.27-3.27c-.23-.07-.44-.2-.6-.38l-16.02-17.93c-.55-.61-1.24-1.07-2.02-1.34l-27.29-9.34c-.1-.18-.21-.35-.33-.52l-16.11-21.82c-.16-.22-.25-.48-.25-.76l-.17-28.67c0-1.7-.93-3.28-2.41-4.13l-33.9-19.42c-.38-.22-.63-.62-.65-1.06-.02-.44.18-.86.55-1.11l26.83-18.82,23.05-9.81c.12-.04.27-.07.43-.07.13,0,.26.02.39.06l17.74,5.59c.23.07.44.21.6.4l12.44,14.77c.91,1.08,2.24,1.7,3.66,1.7.09,0,.19,0,.28,0,1.52-.09,2.88-.87,3.72-2.14l1.87-2.83c.98-1.49,1.06-3.39.2-4.95l-13.3-24.11c-.08-.14-.13-.29-.15-.45l-4-30.67c-.1-.79.46-1.18.63-1.28l.05-.03c.08-.04.31-.15.62-.15.28,0,.54.09.77.28l28.77,22.51c.05.04.1.09.15.14l10.19,10.96c.26.28.38.66.33,1.03l-.42,3.41c-.19,1.52.35,3,1.46,4.06.89.85,2.06,1.31,3.27,1.31.29,0,.58-.03.86-.08l7.18-1.29c.08-.01.16-.02.23-.02.55,0,1.03.34,1.21.86l3.98,11.43c.51,1.46,1.7,2.59,3.19,3.03l32.07,9.29c.43.12.88.19,1.33.19.65,0,1.27-.13,1.86-.38l20.91-8.82c.16-.07.32-.1.49-.1.39,0,.76.18,1,.47l4.88,5.96c.18.22.28.5.29.78l.73,30.93c.03,1.2.5,2.33,1.32,3.19l3.5,3.66c.9.94,2.16,1.48,3.46,1.48.43,0,.85-.06,1.26-.17l8.38-2.29c.11-.03.23-.05.34-.05.15,0,.3.03.44.08l9.21,3.4c.35.13.61.38.75.72.14.34.13.7-.03,1.04l-4.52,9.52-5.75,2.14-25.2,40.11,7.94,66.86-1.11,1.92c-.31.53-.77.64-1.1.64Z"/>
  <path class="cls-1 bragança" d="m568.58,281.82l-11-5.33c-.4-.2-.68-.59-.72-1.04l-1.82-19.57c-.17-1.78-1.25-3.26-2.89-3.96-.61-.26-1.24-.39-1.89-.39-1.08,0-2.11.36-2.97,1.06l-1.97,1.57c-.23.18-.51.28-.81.28-.15,0-.3-.03-.44-.08l-19.83-7.36c-.27-.1-.5-.29-.65-.53l-12.52-20.25c-.35-.56-.22-1.28.3-1.69l21.83-17.13c1.07-.84,1.73-2.1,1.82-3.46l1.02-15.77c.03-.51.37-.96.85-1.13l20.11-7.2c1.67-.6,2.87-2.06,3.12-3.82l1.44-9.9c.03-.23.13-.44.27-.62l23.48-29.12c.87-1.08,1.23-2.49.98-3.86l-4.13-22.77,22.36-23.05,85.12,34.96-14.91,54.12,29.87,14.03,16.76,28.05-41.22,30.95-47.03,9.72-40.93,29.5-23.6-6.22Z"/>
  <path class="cls-1 castelo_branco" d="m387.77,511.91l-2.45.85-45.46,10.99-3.65-18.08c-.18-.91-.62-1.74-1.27-2.4l-8.39-8.6c-.31-.32-.44-.79-.32-1.23l2.19-8.37c.33-1.28.12-2.65-.58-3.76-.7-1.12-1.85-1.9-3.14-2.15l-7.54-1.46c-.3-.06-.6-.09-.91-.09-1.83,0-3.52,1.06-4.31,2.71l-7.78,16.16c-.16.34-.44.57-.79.68-.12.04-.25.06-.37.06-.23,0-.45-.06-.66-.19l-19.87-12.03c-.51-.31-.74-.93-.56-1.5l6.49-19.97c.48-1.48.21-3.1-.72-4.35l-4.46-5.97c.18-.03.36-.08.54-.13l27.61-8.42c1.14-.35,2.1-1.1,2.71-2.12l6.19-10.35s.06-.09.08-.14l34.55-1.43c.14,0,.27.02.4.06l12.12,3.94c.48.16.98.24,1.48.24.72,0,1.42-.16,2.08-.48l16.52-7.98c2.34-1.13,3.35-3.96,2.26-6.32l-5.03-10.9c-.17-.37-.16-.81.05-1.17l4.91-8.73.08.04.42-.81c.19-.19.43-.31.7-.35l22.42-3.38c.34-.05.67-.14.98-.26l33.04-12.54c.15-.06.3-.08.46-.08.26,0,.51.08.73.23l7.07,4.84c.68.47,1.48.75,2.31.82l14.14,1.18c.44.04.83.29,1.04.69.2.39.19.86-.03,1.24l-9.76,16.71c-1.18,2.02-.73,4.58,1.06,6.08l6.17,5.16c.86.72,1.95,1.12,3.07,1.12.29,0,.59-.03.87-.08l21.61-4c.08-.01.15-.02.23-.02.42,0,.82.2,1.06.55l14.17,20.15-13.31,16.67,14.55,24.34-47.76,63.43-77.23-29.09Z"/>
  <path class="cls-1 portalegre" d="m383.15,697.48c.58-1.21.62-2.62.11-3.86s-1.52-2.22-2.78-2.68l-9.21-3.4c-.53-.2-1.09-.3-1.66-.3-.43,0-.85.06-1.27.17l-8.37,2.29c-.11.03-.23.05-.34.05-.35,0-.69-.15-.93-.4l-3.5-3.66c-.22-.23-.35-.54-.36-.86l-.73-30.93c-.02-1.06-.41-2.1-1.08-2.92l-4.88-5.96c-.91-1.11-2.27-1.75-3.72-1.75-.64,0-1.26.13-1.85.37l-20.91,8.82c-.16.07-.33.1-.5.1-.12,0-.24-.02-.36-.05l-32.07-9.29c-.4-.12-.72-.42-.86-.81l-3.98-11.43c-.67-1.92-2.48-3.22-4.51-3.22-.29,0-.57.03-.86.08l-7.18,1.29c-.08.01-.16.02-.24.02-.33,0-.63-.12-.88-.35-.3-.29-.44-.68-.39-1.09l.42-3.41c.17-1.41-.28-2.81-1.25-3.84l-10.19-10.96c-.17-.18-.36-.36-.56-.51l-28.45-22.26,36.52-22.46c.12-.05.24-.08.37-.09l12.86-1.17c.7-.06,1.35-.27,1.96-.62l25.4-14.66c2.06-1.19,2.94-3.75,2.04-5.96l-4.34-10.61c-.2-.49-.08-1.04.29-1.41l11.3-10.96c.24-.23.57-.36.9-.36.03,0,.06,0,.1,0,.36.03.7.21.93.51l9,11.92c.79,1.04,1.93,1.7,3.22,1.87.2.02.4.04.6.04,1.09,0,2.12-.36,2.98-1.04l5.01-4c.17-.14.38-.23.62-.27h.06s46.01-11.14,46.01-11.14l19.84,44.32-.88,51.52,22.55,32.81,7.06,18.47-29.94,31.37-24.14,8.98,2.98-6.27Z"/>
  <path class="cls-1 braga" d="m425.53,170.63c-.39,0-.76-.17-1-.48l-19.35-23.84c-.82-1.02-2-1.64-3.3-1.75-.14-.01-.28-.02-.42-.02-1.15,0-2.26.42-3.13,1.17l-9.1,7.9c-.23.2-.53.31-.84.31s-.63-.12-.86-.33l-9.43-8.52c-.62-.56-1.38-.95-2.2-1.13l-24.98-5.38-9.95-1.91c-.68-.13-1.14-.77-1.03-1.46l.66-4.21c.2-1.27-.13-2.6-.91-3.62l-17.33-22.91,1.75-9.99,1.46-18.1,18.16-1.05h.07c.26,0,.52.08.73.22l16.05,10.99c.8.55,1.73.83,2.7.83,1.48,0,2.85-.66,3.77-1.82l15.09-19.12c.25-.31.61-.49,1.01-.49.04,0,.08,0,.12,0l17.73,1.68c.08,0,.16.02.24.05l10.4,3.03c.43.13.88.19,1.33.19.19,0,.39-.01.58-.04l37.35-4.53,3.32,3.1-16.68,22.26c-.91,1.22-1.19,2.75-.77,4.21.42,1.46,1.48,2.6,2.9,3.14l12.9,4.89c.65.25.99.99.75,1.64l-3.72,10.21c-.46,1.25-.38,2.6.22,3.79.59,1.17,1.65,2.06,2.92,2.44l17.86,5.28c.53.16.9.64.92,1.19l.25,7.67c.02.53-.29,1.01-.78,1.22l-22.06,9.53c-.8.35-1.5.91-2.01,1.63l-12.11,17.71c-.15-.01-.29-.02-.44-.02-.89,0-1.76.25-2.51.72l-5.65,3.51c-.2.13-.44.19-.68.19Z"/>
  <path class="cls-1" d="m363.27,83.87c-.26,0-.51-.08-.72-.22l-16.05-10.99c-.8-.55-1.73-.84-2.7-.84-.09,0-.19,0-.28,0l-17.67,1.02,3.58-44.27L374.35.8l67.1-.3,15.37,13.39c.73.63.86,1.71.31,2.5l-23.39,33.91,13.8,12.89-34.43,4.18c-.05,0-.1,0-.16,0-.12,0-.24-.02-.36-.05l-10.4-3.03c-.29-.08-.59-.14-.89-.17l-17.73-1.68c-.15-.01-.3-.02-.46-.02-1.47,0-2.84.66-3.75,1.82l-15.09,19.12c-.24.31-.61.49-1.01.49Z"/>
</svg>